<?xml version="1.0" encoding="UTF-8"?>
<svg width="222px" height="210px" viewBox="0 0 222 210" version="1.1" xmlns="http://www.w3.org/2000/svg" xmlns:xlink="http://www.w3.org/1999/xlink">
    <!-- Generator: Sketch 46.2 (44496) - http://www.bohemiancoding.com/sketch -->
    <title>Logo-bottom-center-1x-vector</title>
    <desc>Created with Sketch.</desc>
    <defs>
        <linearGradient x1="50%" y1="0%" x2="50%" y2="100%" id="linearGradient-1">
            <stop stop-color="#5D86C3" offset="0%"></stop>
            <stop stop-color="#96BBE3" offset="46.5441645%"></stop>
            <stop stop-color="#5D86C3" offset="100%"></stop>
        </linearGradient>
        <polygon id="path-2" points="89.2494781 78.5314577 109.796277 59.6944444 109.616861 141.921491 89.2494781 159.771821"></polygon>
        <linearGradient x1="50%" y1="20.4451457%" x2="50%" y2="72.5242474%" id="linearGradient-3">
            <stop stop-color="#7B80D1" offset="0%"></stop>
            <stop stop-color="#51318D" offset="100%"></stop>
        </linearGradient>
        <polygon id="path-4" points="32.2746825 54.6366791 52.821481 71.8866079 52.821481 137.567836 32.2746825 158.305166"></polygon>
        <linearGradient x1="50%" y1="79.3924644%" x2="50%" y2="20.4451463%" id="linearGradient-5">
            <stop stop-color="#7B80D1" offset="0%"></stop>
            <stop stop-color="#51318D" offset="100%"></stop>
        </linearGradient>
        <polygon id="path-6" points="32.9754116 13.3280694 54.1131223 -4.09787234 53.8373797 97.3482695 33.5663238 76.8662354"></polygon>
        <linearGradient x1="50%" y1="20.4451457%" x2="50%" y2="80.4341731%" id="linearGradient-7">
            <stop stop-color="#7B80D1" offset="0%"></stop>
            <stop stop-color="#51318D" offset="100%"></stop>
        </linearGradient>
        <polygon id="path-8" points="196.899264 -5.28085021 217.446063 11.9690786 217.446063 77.6503064 196.899264 98.3876372"></polygon>
        <polygon id="path-9" points="195.915205 72.4972257 217.052915 55.8741935 216.777173 157.320335 196.506117 136.838301"></polygon>
        <linearGradient x1="49.927783%" y1="100%" x2="49.927783%" y2="0%" id="linearGradient-10">
            <stop stop-color="#96BBE3" offset="0%"></stop>
            <stop stop-color="#759FCD" offset="46.6039541%"></stop>
            <stop stop-color="#96BBE3" offset="100%"></stop>
        </linearGradient>
        <polygon id="path-11" points="114.482218 -11.6720833 135.029016 5.12834814 135.029016 165.580585 114.482218 148.439543"></polygon>
    </defs>
    <g id="wallpaper" stroke="none" stroke-width="1" fill="none" fill-rule="evenodd">
        <g id="Logo-bottom-center-1x-vector" transform="translate(-14.000000, -13.000000)">
            <path d="M64.7,188.2 L72.14,188.2 L52.94,223 L46.46,223 L27.26,188.2 L34.76,188.2 L49.7,215.68 L64.7,188.2 Z M100.28,188.2 C102.440011,188.2 104.279992,188.959992 105.8,190.48 C107.320008,192.000008 108.08,193.839989 108.08,196 L108.08,208.84 L79.16,208.84 L79.16,215.2 C79.16,215.560002 79.2899987,215.869999 79.55,216.13 C79.8100013,216.390001 80.1199982,216.52 80.48,216.52 L108.08,216.52 L108.08,223 L80.48,223 C78.3199892,223 76.4800076,222.240008 74.96,220.72 C73.4399924,219.199992 72.68,217.360011 72.68,215.2 L72.68,196 C72.68,193.839989 73.4399924,192.000008 74.96,190.48 C76.4800076,188.959992 78.3199892,188.2 80.48,188.2 L100.28,188.2 Z M79.16,202.36 L101.6,202.36 L101.6,196 C101.6,195.639998 101.470001,195.330001 101.21,195.07 C100.949999,194.809999 100.640002,194.68 100.28,194.68 L80.48,194.68 C80.1199982,194.68 79.8100013,194.809999 79.55,195.07 C79.2899987,195.330001 79.16,195.639998 79.16,196 L79.16,202.36 Z M120.86,188.2 L140.3,188.2 L140.3,194.68 L120.86,194.68 C120.499998,194.68 120.190001,194.809999 119.93,195.07 C119.669999,195.330001 119.54,195.639998 119.54,196 L119.54,223 L113.06,223 L113.06,196 C113.06,193.839989 113.819992,192.000008 115.34,190.48 C116.860008,188.959992 118.699989,188.2 120.86,188.2 Z M179.36,188.2 L186.8,188.2 L167.6,223 L161.12,223 L141.92,188.2 L149.42,188.2 L164.36,215.68 L179.36,188.2 Z M214.94,188.2 C217.100011,188.2 218.939992,188.959992 220.46,190.48 C221.980008,192.000008 222.74,193.839989 222.74,196 L222.74,208.84 L193.82,208.84 L193.82,215.2 C193.82,215.560002 193.949999,215.869999 194.21,216.13 C194.470001,216.390001 194.779998,216.52 195.14,216.52 L222.74,216.52 L222.74,223 L195.14,223 C192.979989,223 191.140008,222.240008 189.62,220.72 C188.099992,219.199992 187.34,217.360011 187.34,215.2 L187.34,196 C187.34,193.839989 188.099992,192.000008 189.62,190.48 C191.140008,188.959992 192.979989,188.2 195.14,188.2 L214.94,188.2 Z M193.82,202.36 L216.26,202.36 L216.26,196 C216.26,195.639998 216.130001,195.330001 215.87,195.07 C215.609999,194.809999 215.300002,194.68 214.94,194.68 L195.14,194.68 C194.779998,194.68 194.470001,194.809999 194.21,195.07 C193.949999,195.330001 193.82,195.639998 193.82,196 L193.82,202.36 Z" id="verve" fill="#5E609E"></path>
            <g id="logo">
                <g id="Rectangle-1" transform="translate(99.522877, 109.733133) rotate(45.000000) translate(-99.522877, -109.733133) ">
                    <use fill="url(#linearGradient-1)" fill-rule="evenodd" xlink:href="#path-2"></use>
                    <path stroke="#111111" stroke-width="1" d="M89.7494781,78.7513892 L89.7494781,158.668762 L109.117355,141.694416 L109.29379,60.8334412 L89.7494781,78.7513892 Z"></path>
                </g>
                <g id="Rectangle-1" transform="translate(42.548082, 106.470923) scale(-1, -1) rotate(-40.000000) translate(-42.548082, -106.470923) ">
                    <use fill="url(#linearGradient-3)" fill-rule="evenodd" xlink:href="#path-4"></use>
                    <path stroke="#111111" stroke-width="1" d="M32.7746825,55.7092971 L32.7746825,157.090137 L52.321481,137.362079 L52.321481,72.1196825 L32.7746825,55.7092971 Z"></path>
                </g>
                <g id="Rectangle-1" transform="translate(43.544267, 46.625199) rotate(45.000000) translate(-43.544267, -46.625199) ">
                    <use fill="url(#linearGradient-5)" fill-rule="evenodd" xlink:href="#path-6"></use>
                    <path stroke="#111111" stroke-width="1" d="M33.4776094,13.5620612 L34.0644155,76.6587151 L53.3406741,96.1355981 L53.6102323,-3.03528551 L33.4776094,13.5620612 Z"></path>
                </g>
                <g id="Rectangle-1" transform="translate(207.172663, 46.553393) rotate(-40.000000) translate(-207.172663, -46.553393) ">
                    <use fill="url(#linearGradient-7)" fill-rule="evenodd" xlink:href="#path-8"></use>
                    <path stroke="#111111" stroke-width="1" d="M197.399264,-4.20823223 L197.399264,97.1726078 L216.946063,77.4445501 L216.946063,12.2021532 L197.399264,-4.20823223 Z"></path>
                </g>
                <g id="Rectangle-1" transform="translate(206.484060, 106.597264) scale(-1, -1) rotate(45.000000) translate(-206.484060, -106.597264) ">
                    <use fill="url(#linearGradient-5)" fill-rule="evenodd" xlink:href="#path-9"></use>
                    <path stroke="#111111" stroke-width="1" d="M196.41744,72.7383512 L197.004232,136.630805 L216.280467,156.107664 L216.55011,56.9056995 L196.41744,72.7383512 Z"></path>
                </g>
                <g id="Rectangle-1" transform="translate(124.755617, 76.954251) rotate(-40.000000) translate(-124.755617, -76.954251) ">
                    <use fill="url(#linearGradient-10)" fill-rule="evenodd" xlink:href="#path-11"></use>
                    <path stroke="#111111" stroke-width="1" d="M114.982218,-10.6173826 L114.982218,148.205519 L134.529016,164.512317 L134.529016,5.36538221 L114.982218,-10.6173826 Z"></path>
                </g>
            </g>
        </g>
    </g>
</svg>