<?xml version="1.0" encoding="UTF-8"?>
<svg width="62px" height="37px" viewBox="0 0 62 37" version="1.1" xmlns="http://www.w3.org/2000/svg" xmlns:xlink="http://www.w3.org/1999/xlink">
    <!-- Generator: Sketch 46.2 (44496) - http://www.bohemiancoding.com/sketch -->
    <title>logo-small</title>
    <desc>Created with Sketch.</desc>
    <defs>
        <linearGradient x1="50%" y1="0%" x2="50%" y2="100%" id="linearGradient-1">
            <stop stop-color="#5D86C3" offset="0%"></stop>
            <stop stop-color="#96BBE3" offset="46.5441645%"></stop>
            <stop stop-color="#5D86C3" offset="100%"></stop>
        </linearGradient>
        <polygon id="path-2" points="24.9898539 22.036714 30.7429574 16.7508593 30.692721 39.8245927 24.9898539 44.8335743"></polygon>
        <linearGradient x1="50%" y1="20.4451457%" x2="50%" y2="72.5242474%" id="linearGradient-3">
            <stop stop-color="#7B80D1" offset="0%"></stop>
            <stop stop-color="#51318D" offset="100%"></stop>
        </linearGradient>
        <polygon id="path-4" points="9.03691109 15.3315997 14.7900147 20.1721026 14.7900147 38.6029134 9.03691109 44.4220162"></polygon>
        <linearGradient x1="50%" y1="79.3924644%" x2="50%" y2="20.4451463%" id="linearGradient-5">
            <stop stop-color="#7B80D1" offset="0%"></stop>
            <stop stop-color="#51318D" offset="100%"></stop>
        </linearGradient>
        <polygon id="path-6" points="9.23311526 3.73998985 15.1516743 -1.14990405 15.0744663 27.3169 9.39857067 21.569436"></polygon>
        <linearGradient x1="50%" y1="20.4451457%" x2="50%" y2="80.4341731%" id="linearGradient-7">
            <stop stop-color="#7B80D1" offset="0%"></stop>
            <stop stop-color="#51318D" offset="100%"></stop>
        </linearGradient>
        <polygon id="path-8" points="55.1317939 -1.48185949 60.8848975 3.3586434 60.8848975 21.7894542 55.1317939 27.608557"></polygon>
        <polygon id="path-9" points="54.8562573 20.3434481 60.7748163 15.6788587 60.6976083 44.1456627 55.0217127 38.3981987"></polygon>
        <linearGradient x1="49.927783%" y1="100%" x2="49.927783%" y2="0%" id="linearGradient-10">
            <stop stop-color="#96BBE3" offset="0%"></stop>
            <stop stop-color="#759FCD" offset="46.6039541%"></stop>
            <stop stop-color="#96BBE3" offset="100%"></stop>
        </linearGradient>
        <polygon id="path-11" points="32.055021 -3.27530354 37.8081246 1.43906588 37.8081246 46.4635715 32.055021 41.6536234"></polygon>
    </defs>
    <g id="wallpaper" stroke="none" stroke-width="1" fill="none" fill-rule="evenodd">
        <g id="logo-small" transform="translate(-4.000000, -3.000000)">
            <g id="Rectangle-1" transform="translate(27.866406, 30.792217) rotate(45.000000) translate(-27.866406, -30.792217) ">
                <use fill="url(#linearGradient-1)" fill-rule="evenodd" xlink:href="#path-2"></use>
                <path stroke="#111111" stroke-width="0.2" d="M25.0898539,22.0806357 L25.0898539,44.6139645 L30.5927213,39.824375 L30.6424605,16.9789942 L25.0898539,22.0806357 Z"></path>
            </g>
            <g id="Rectangle-1" transform="translate(11.913463, 29.876808) scale(-1, -1) rotate(-40.000000) translate(-11.913463, -29.876808) ">
                <use fill="url(#linearGradient-3)" fill-rule="evenodd" xlink:href="#path-4"></use>
                <path stroke="#111111" stroke-width="0.2" d="M9.13691109,15.5464239 L9.13691109,44.1798624 L14.6900147,38.6029134 L14.7256339,20.2486213 L9.13691109,15.5464239 Z"></path>
            </g>
            <g id="Rectangle-1" transform="translate(12.192395, 13.083498) rotate(45.000000) translate(-12.192395, -13.083498) ">
                <use fill="url(#linearGradient-5)" fill-rule="evenodd" xlink:href="#path-6"></use>
                <path stroke="#111111" stroke-width="0.2" d="M9.33347805,3.78678556 L9.46972296,21.4991697 L14.9751248,27.0739901 L15.0510967,-0.93709209 L9.33347805,3.78678556 Z"></path>
            </g>
            <g id="Rectangle-1" transform="translate(58.008346, 13.063349) rotate(-40.000000) translate(-58.008346, -13.063349) ">
                <use fill="url(#linearGradient-7)" fill-rule="evenodd" xlink:href="#path-8"></use>
                <path stroke="#111111" stroke-width="0.2" d="M55.2317939,-1.26703531 L55.2317939,27.3664032 L60.7848975,21.7894542 L60.8205168,3.43516214 L55.2317939,-1.26703531 Z"></path>
            </g>
            <g id="Rectangle-1" transform="translate(57.815537, 29.912261) scale(-1, -1) rotate(45.000000) translate(-57.815537, -29.912261) ">
                <use fill="url(#linearGradient-5)" fill-rule="evenodd" xlink:href="#path-9"></use>
                <path stroke="#111111" stroke-width="0.2" d="M54.9566263,20.3916686 L55.092865,38.3279324 L60.5982668,43.9027528 L60.6742556,15.8854378 L54.9566263,20.3916686 Z"></path>
            </g>
            <g id="Rectangle-1" transform="translate(34.931573, 21.594134) rotate(-40.000000) translate(-34.931573, -21.594134) ">
                <use fill="url(#linearGradient-10)" fill-rule="evenodd" xlink:href="#path-11"></use>
                <path stroke="#111111" stroke-width="0.2" d="M32.1548523,-3.06421071 L32.1191629,41.5769043 L37.7082988,46.2497653 L37.7447422,1.51641359 L32.1548523,-3.06421071 Z"></path>
            </g>
        </g>
    </g>
</svg>